<svg version="1.1" id="Layer_1" xmlns="http://www.w3.org/2000/svg" xmlns:xlink="http://www.w3.org/1999/xlink" x="0px" y="0px"
	 width="100%" viewBox="0 0 2000 2000" enable-background="new 0 0 2000 2000" xml:space="preserve">
<path fill="#FFD558" opacity="1.000000" stroke="none" 
	d="
M433.000000,2001.000000 
	C289.020477,2001.000000 145.040955,2001.000000 1.030719,2001.000000 
	C1.030719,1334.448608 1.030719,667.897278 1.030719,1.000000 
	C144.697403,1.000000 288.395081,1.000000 432.546448,1.425297 
	C433.062347,4.968568 433.162659,8.086349 433.178650,11.204561 
	C433.210571,17.429348 433.202271,23.654375 433.199615,29.879299 
	C433.195496,39.680222 433.175323,49.481148 433.175568,59.282070 
	C433.175720,65.506996 433.206085,71.731918 433.212982,77.956856 
	C433.220734,84.977333 433.194794,91.997925 433.225342,99.018280 
	C433.253784,105.567467 433.358002,112.116295 433.390350,118.665482 
	C433.422638,125.202248 433.435944,131.739395 433.404694,138.276108 
	C433.373352,144.824875 433.246002,151.373169 433.216766,157.921921 
	C433.185425,164.942245 433.200348,171.962921 433.230347,178.983292 
	C433.258362,185.532715 433.349091,192.081863 433.382080,198.631271 
	C433.414978,205.168076 433.443665,211.705215 433.412964,218.241928 
	C433.382172,224.790436 433.239471,231.338425 433.210846,237.886917 
	C433.167969,247.687698 433.174408,257.488708 433.174500,267.289642 
	C433.174561,273.514557 433.207336,279.739502 433.214142,285.964417 
	C433.221863,292.984894 433.193604,300.005463 433.224213,307.025818 
	C433.252777,313.574951 433.359863,320.123688 433.392090,326.672821 
	C433.424286,333.209564 433.434296,339.746735 433.402832,346.283478 
	C433.371338,352.832275 433.246887,359.380646 433.217743,365.929443 
	C433.186493,372.949768 433.199127,379.970459 433.229279,386.990814 
	C433.257385,393.540192 433.350983,400.089233 433.383820,406.638611 
	C433.416595,413.175385 433.442047,419.712555 433.411194,426.249268 
	C433.380310,432.797821 433.242371,439.345886 433.212799,445.894440 
	C433.181091,452.914734 433.222168,459.935364 433.229187,466.955841 
	C433.235596,473.344940 433.199188,479.734375 433.254700,486.123047 
	C433.311462,492.661346 433.556305,499.199188 433.539185,505.736725 
	C433.516388,514.445801 433.269775,523.154114 433.211578,531.863342 
	C433.146057,541.663879 433.177368,551.465088 433.178009,561.265991 
	C433.178436,567.490906 433.203644,573.715820 433.210571,579.940735 
	C433.218384,586.961182 433.197296,593.981750 433.227631,601.002136 
	C433.255890,607.551392 433.353821,614.100342 433.386475,620.649597 
	C433.419067,627.186401 433.439514,633.723511 433.408478,640.260254 
	C433.377411,646.808899 433.243866,653.357056 433.214386,659.905701 
	C433.182800,666.925964 433.202850,673.946655 433.232697,680.967041 
	C433.260529,687.516541 433.344910,694.065857 433.378143,700.615356 
	C433.411316,707.152222 433.415649,713.689148 433.425781,720.226074 
	C433.436401,727.096985 433.451752,733.967896 433.441345,740.838806 
	C433.431458,747.375732 433.396576,753.912598 433.362274,760.449524 
	C433.327911,766.999451 433.221771,773.549744 433.255707,780.099304 
	C433.289581,786.636353 433.565094,793.173035 433.542053,799.709290 
	C433.509155,809.034546 433.181213,818.359497 433.201141,827.684143 
	C433.220673,836.839600 433.591125,845.993896 433.673218,855.149902 
	C433.765564,865.446411 433.710571,875.744263 433.713959,886.041565 
	C433.716034,892.295593 433.128326,898.085449 426.155426,901.024902 
	C422.825897,902.428528 419.773773,904.639038 416.865906,906.840576 
	C414.992035,908.259155 413.608521,910.325500 411.704254,912.302063 
	C406.339630,914.795044 401.250916,917.033875 396.216858,919.389526 
	C377.358215,928.213867 358.563232,937.175537 339.660339,945.903748 
	C302.417267,963.100342 265.143799,980.231995 227.802307,997.213318 
	C224.046295,998.921326 222.880356,1001.021484 222.979141,1005.030090 
	C223.225098,1015.010254 222.957306,1025.003052 222.558228,1035.102173 
	C221.205383,1037.581909 219.344925,1039.937622 219.309921,1042.320312 
	C219.054047,1059.737549 218.344177,1077.212158 219.446915,1094.562622 
	C220.185837,1106.188477 226.477158,1116.172241 236.370773,1122.770142 
	C246.031540,1129.213013 256.108124,1135.109009 266.362946,1140.567139 
	C283.698273,1149.793823 301.301422,1158.518799 318.824097,1167.391235 
	C330.524750,1173.315796 342.280884,1179.130859 354.096405,1185.327148 
	C355.783936,1186.771606 357.369659,1187.910400 358.993683,1188.991455 
	C365.336212,1193.213501 371.770172,1197.304443 378.002502,1201.682861 
	C380.531799,1203.459717 382.422516,1206.150269 384.961761,1207.907715 
	C399.572784,1218.020142 414.290100,1227.979126 428.973999,1237.986206 
	C432.371704,1240.301514 434.386505,1242.907104 433.280273,1247.578125 
	C432.509430,1250.833008 433.194855,1254.427979 433.195831,1257.871094 
	C433.198578,1267.668701 433.178101,1277.466309 433.178223,1287.263916 
	C433.178314,1293.486694 433.201965,1299.709595 433.209290,1305.932373 
	C433.217590,1312.950439 433.200165,1319.968750 433.229736,1326.986694 
	C433.257324,1333.533936 433.347717,1340.080933 433.381256,1346.628174 
	C433.414703,1353.162842 433.446411,1359.697754 433.415344,1366.232422 
	C433.384216,1372.778564 433.236450,1379.324341 433.208313,1385.870483 
	C433.166199,1395.667969 433.178192,1405.465698 433.178314,1415.263306 
	C433.178406,1421.486206 433.201874,1427.708984 433.209229,1433.931885 
	C433.217499,1440.949951 433.217865,1447.968018 433.224762,1454.986084 
	C433.231018,1461.372925 433.204987,1467.760010 433.260223,1474.146362 
	C433.316711,1480.681274 433.555573,1487.215576 433.532623,1493.749512 
	C433.499847,1503.072021 433.251953,1512.393555 433.187622,1521.716187 
	C433.124268,1530.898682 433.171204,1540.081909 433.177338,1549.264893 
	C433.181488,1555.487671 433.202057,1561.710571 433.209412,1567.933350 
	C433.217712,1574.951416 433.200043,1581.969727 433.229645,1588.987671 
	C433.257233,1595.534912 433.347961,1602.081787 433.381470,1608.629028 
	C433.414886,1615.163696 433.446136,1621.698608 433.415070,1628.233276 
	C433.383972,1634.779419 433.236633,1641.325317 433.208496,1647.871460 
	C433.166382,1657.668945 433.178101,1667.466675 433.178223,1677.264282 
	C433.178284,1683.487061 433.202026,1689.709961 433.209381,1695.932739 
	C433.217651,1702.950806 433.217651,1709.968994 433.224579,1716.987061 
	C433.230865,1723.373901 433.205261,1729.760986 433.260468,1736.147339 
	C433.316925,1742.682251 433.555481,1749.216553 433.532379,1755.750488 
	C433.499420,1765.072998 433.184387,1774.395020 433.205780,1783.716797 
	C433.226807,1792.869263 433.663879,1802.021484 433.649475,1811.173218 
	C433.634827,1820.492310 433.135803,1829.810669 433.137482,1839.129395 
	C433.139160,1848.446289 433.656555,1857.763062 433.655670,1867.079956 
	C433.654816,1876.398438 433.131866,1885.717041 433.133514,1895.035522 
	C433.135162,1904.352539 433.684296,1913.669922 433.664917,1922.986450 
	C433.640076,1934.919922 433.200226,1946.851929 433.097565,1958.786011 
	C432.976562,1972.856567 433.025024,1986.928589 433.000000,2001.000000 
z"/>
<path fill="#FFC655" opacity="1.000000" stroke="none" 
	d="
M412.005280,912.101562 
	C413.608521,910.325500 414.992035,908.259155 416.865906,906.840576 
	C419.773773,904.639038 422.825897,902.428528 426.155426,901.024902 
	C433.128326,898.085449 433.716034,892.295593 433.713959,886.041565 
	C433.710571,875.744263 433.765564,865.446411 433.673218,855.149902 
	C433.591125,845.993896 433.220673,836.839600 433.201141,827.684143 
	C433.181213,818.359497 433.509155,809.034546 433.542053,799.709290 
	C433.565094,793.173035 433.289581,786.636353 433.255707,780.099304 
	C433.221771,773.549744 433.327911,766.999451 433.362274,760.449524 
	C433.396576,753.912598 433.431458,747.375732 433.441345,740.838806 
	C433.451752,733.967896 433.436401,727.096985 433.425781,720.226074 
	C433.415649,713.689148 433.411316,707.152222 433.378143,700.615356 
	C433.344910,694.065857 433.260529,687.516541 433.232697,680.967041 
	C433.202850,673.946655 433.182800,666.925964 433.214386,659.905701 
	C433.243866,653.357056 433.377411,646.808899 433.408478,640.260254 
	C433.439514,633.723511 433.419067,627.186401 433.386475,620.649597 
	C433.353821,614.100342 433.255890,607.551392 433.227631,601.002136 
	C433.197296,593.981750 433.218384,586.961182 433.210571,579.940735 
	C433.203644,573.715820 433.178436,567.490906 433.178009,561.265991 
	C433.177368,551.465088 433.146057,541.663879 433.211578,531.863342 
	C433.269775,523.154114 433.516388,514.445801 433.539185,505.736725 
	C433.556305,499.199188 433.311462,492.661346 433.254700,486.123047 
	C433.199188,479.734375 433.235596,473.344940 433.229187,466.955841 
	C433.222168,459.935364 433.181091,452.914734 433.212799,445.894440 
	C433.242371,439.345886 433.380310,432.797821 433.411194,426.249268 
	C433.442047,419.712555 433.416595,413.175385 433.383820,406.638611 
	C433.350983,400.089233 433.257385,393.540192 433.229279,386.990814 
	C433.199127,379.970459 433.186493,372.949768 433.217743,365.929443 
	C433.246887,359.380646 433.371338,352.832275 433.402832,346.283478 
	C433.434296,339.746735 433.424286,333.209564 433.392090,326.672821 
	C433.359863,320.123688 433.252777,313.574951 433.224213,307.025818 
	C433.193604,300.005463 433.221863,292.984894 433.214142,285.964417 
	C433.207336,279.739502 433.174561,273.514557 433.174500,267.289642 
	C433.174408,257.488708 433.167969,247.687698 433.210846,237.886917 
	C433.239471,231.338425 433.382172,224.790436 433.412964,218.241928 
	C433.443665,211.705215 433.414978,205.168076 433.382080,198.631271 
	C433.349091,192.081863 433.258362,185.532715 433.230347,178.983292 
	C433.200348,171.962921 433.185425,164.942245 433.216766,157.921921 
	C433.246002,151.373169 433.373352,144.824875 433.404694,138.276108 
	C433.435944,131.739395 433.422638,125.202248 433.390350,118.665482 
	C433.358002,112.116295 433.253784,105.567467 433.225342,99.018280 
	C433.194794,91.997925 433.220734,84.977333 433.212982,77.956856 
	C433.206085,71.731918 433.175720,65.506996 433.175568,59.282070 
	C433.175323,49.481148 433.195496,39.680222 433.199615,29.879299 
	C433.202271,23.654375 433.210571,17.429348 433.178650,11.204561 
	C433.162659,8.086349 433.062347,4.968568 433.000061,1.425297 
	C560.020874,1.000000 687.041809,1.000000 814.531372,1.420473 
	C815.187805,11.883296 815.511658,21.925488 815.523376,31.968042 
	C815.534119,41.177429 815.124756,50.386574 815.054871,59.596992 
	C814.988708,68.320229 815.117798,77.045021 815.170654,85.769073 
	C815.226440,94.974274 815.322632,104.179321 815.347839,113.384583 
	C815.374451,123.092384 815.353577,132.800415 815.325073,142.508255 
	C815.297974,151.712830 815.217407,160.917236 815.191101,170.121811 
	C815.164795,179.342270 815.151001,188.562912 815.178650,197.783340 
	C815.206299,206.988480 815.319458,216.193375 815.344971,225.398514 
	C815.371826,235.106323 815.356262,244.814346 815.328003,254.522186 
	C815.301147,263.726868 815.215759,272.931366 815.189209,282.136017 
	C815.162659,291.356506 815.153076,300.577148 815.180542,309.797607 
	C815.207947,319.002686 815.316162,328.207520 815.341919,337.412598 
	C815.369019,347.120422 815.345276,356.828400 815.334900,366.536316 
	C815.325134,375.578278 815.298157,384.620270 815.288818,393.662231 
	C815.278992,403.208405 815.286987,412.754578 815.276611,422.300751 
	C815.266663,431.504456 815.237122,440.708191 815.227600,449.911896 
	C815.217896,459.296326 815.211914,468.680725 815.222839,478.065155 
	C815.233582,487.270325 815.289124,496.475494 815.285461,505.680664 
	C815.282043,514.432007 815.213440,523.183411 815.199219,531.934753 
	C815.184021,541.301086 815.205017,550.667419 815.198730,560.033752 
	C815.192505,569.254333 815.165771,578.474915 815.159302,587.695496 
	C815.152649,597.226379 815.140076,606.757324 815.165833,616.288147 
	C815.191162,625.670959 815.280151,635.053528 815.306213,644.436340 
	C815.331360,653.478333 815.331665,662.520508 815.306519,671.562500 
	C815.280396,680.945312 815.190857,690.327881 815.165527,699.710693 
	C815.139771,709.241516 815.137817,718.772461 815.163757,728.303284 
	C815.189270,737.685974 815.290222,747.068481 815.301575,756.451172 
	C815.305847,760.034790 815.928528,763.902466 814.761658,767.088501 
	C814.129456,768.814758 810.295715,769.322510 807.974915,770.513794 
	C807.496094,770.759583 807.322021,771.598999 806.553223,772.292725 
	C751.215271,772.420776 696.331543,772.420776 640.919739,772.420776 
	C640.919739,789.083496 640.919739,805.040039 640.574280,821.127563 
	C639.485901,825.239258 638.096558,829.219604 638.093445,833.200989 
	C637.981934,975.601624 637.989624,1118.002319 638.046387,1260.402954 
	C638.048218,1265.031250 638.265625,1269.756470 639.200623,1274.266968 
	C641.123413,1283.543823 645.453979,1291.370728 654.191467,1296.165283 
	C664.778320,1301.974487 676.362610,1302.580200 688.146667,1303.366455 
	C689.301147,1304.151123 690.312378,1304.912598 691.337341,1304.931519 
	C697.600220,1305.047607 703.877380,1305.236816 710.128845,1304.948242 
	C723.136841,1304.348267 734.519958,1296.138550 738.059570,1283.661865 
	C740.299072,1275.767456 741.762573,1267.373535 741.830444,1259.189087 
	C742.190979,1215.708862 741.930176,1172.223633 742.096741,1128.740967 
	C742.115540,1123.827393 742.996704,1118.789551 744.303345,1114.036255 
	C746.643433,1105.523560 755.211487,1102.001587 763.374451,1105.419312 
	C765.754150,1106.415527 768.498657,1106.644165 771.107910,1106.961670 
	C774.229553,1107.341675 777.467896,1107.062622 780.511414,1107.728638 
	C790.890686,1109.999878 801.230530,1112.468262 811.517944,1115.123169 
	C812.866272,1115.471191 814.690918,1117.261841 814.806580,1118.520996 
	C815.272278,1123.588745 815.218323,1128.710205 815.236145,1133.812134 
	C815.268982,1143.196777 815.211121,1152.581543 815.201965,1161.966309 
	C815.192749,1171.333130 815.200317,1180.700073 815.194092,1190.066895 
	C815.187927,1199.287964 815.143372,1208.509277 815.171692,1217.730225 
	C815.199890,1226.936279 815.330872,1236.142090 815.355652,1245.348145 
	C815.381775,1255.056519 815.332520,1264.765259 815.321594,1274.473755 
	C815.311462,1283.516357 815.323608,1292.558838 815.298157,1301.601440 
	C815.271667,1310.984863 815.169373,1320.368408 815.178528,1329.751831 
	C815.187500,1338.957642 815.325928,1348.163452 815.351074,1357.369385 
	C815.377502,1367.077759 815.350891,1376.786499 815.322021,1386.494995 
	C815.294678,1395.700073 815.218750,1404.905029 815.192749,1414.110107 
	C815.166748,1423.331299 815.149780,1432.552490 815.177429,1441.773560 
	C815.205017,1450.979370 815.320984,1460.184814 815.346436,1469.390625 
	C815.373291,1479.098999 815.340210,1488.807739 815.330750,1498.516235 
	C815.321960,1507.560181 815.319824,1516.604126 815.296143,1525.648071 
	C815.273193,1534.399780 815.194580,1543.151489 815.199219,1551.903198 
	C815.204102,1561.108154 815.318298,1570.313232 815.311768,1579.518188 
	C815.305115,1588.901123 815.158569,1598.284180 815.167725,1607.667114 
	C815.176697,1616.873413 815.368896,1626.079834 815.362122,1635.286133 
	C815.355286,1644.667847 815.118896,1654.049561 815.137329,1663.431152 
	C815.160645,1675.270630 815.434631,1687.110107 815.425964,1698.949341 
	C815.417114,1710.961060 815.084595,1722.972778 815.098877,1734.984253 
	C815.112915,1746.825806 815.523560,1758.667236 815.506409,1770.508423 
	C815.485107,1785.149048 815.066650,1799.789307 815.070190,1814.429810 
	C815.073730,1829.069580 815.524536,1843.709473 815.524292,1858.349243 
	C815.524048,1872.989014 815.069641,1887.628784 815.069641,1902.268555 
	C815.069641,1916.908325 815.541931,1931.548462 815.523621,1946.187988 
	C815.500671,1964.458740 815.187744,1982.729370 815.000000,2001.000000 
	C687.979126,2001.000000 560.958191,2001.000000 433.468658,2001.000000 
	C433.025024,1986.928589 432.976562,1972.856567 433.097565,1958.786011 
	C433.200226,1946.851929 433.640076,1934.919922 433.664917,1922.986450 
	C433.684296,1913.669922 433.135162,1904.352539 433.133514,1895.035522 
	C433.131866,1885.717041 433.654816,1876.398438 433.655670,1867.079956 
	C433.656555,1857.763062 433.139160,1848.446289 433.137482,1839.129395 
	C433.135803,1829.810669 433.634827,1820.492310 433.649475,1811.173218 
	C433.663879,1802.021484 433.226807,1792.869263 433.205780,1783.716797 
	C433.184387,1774.395020 433.499420,1765.072998 433.532379,1755.750488 
	C433.555481,1749.216553 433.316925,1742.682251 433.260468,1736.147339 
	C433.205261,1729.760986 433.230865,1723.373901 433.224579,1716.987061 
	C433.217651,1709.968994 433.217651,1702.950806 433.209381,1695.932739 
	C433.202026,1689.709961 433.178284,1683.487061 433.178223,1677.264282 
	C433.178101,1667.466675 433.166382,1657.668945 433.208496,1647.871460 
	C433.236633,1641.325317 433.383972,1634.779419 433.415070,1628.233276 
	C433.446136,1621.698608 433.414886,1615.163696 433.381470,1608.629028 
	C433.347961,1602.081787 433.257233,1595.534912 433.229645,1588.987671 
	C433.200043,1581.969727 433.217712,1574.951416 433.209412,1567.933350 
	C433.202057,1561.710571 433.181488,1555.487671 433.177338,1549.264893 
	C433.171204,1540.081909 433.124268,1530.898682 433.187622,1521.716187 
	C433.251953,1512.393555 433.499847,1503.072021 433.532623,1493.749512 
	C433.555573,1487.215576 433.316711,1480.681274 433.260223,1474.146362 
	C433.204987,1467.760010 433.231018,1461.372925 433.224762,1454.986084 
	C433.217865,1447.968018 433.217499,1440.949951 433.209229,1433.931885 
	C433.201874,1427.708984 433.178406,1421.486206 433.178314,1415.263306 
	C433.178192,1405.465698 433.166199,1395.667969 433.208313,1385.870483 
	C433.236450,1379.324341 433.384216,1372.778564 433.415344,1366.232422 
	C433.446411,1359.697754 433.414703,1353.162842 433.381256,1346.628174 
	C433.347717,1340.080933 433.257324,1333.533936 433.229736,1326.986694 
	C433.200165,1319.968750 433.217590,1312.950439 433.209290,1305.932373 
	C433.201965,1299.709595 433.178314,1293.486694 433.178223,1287.263916 
	C433.178101,1277.466309 433.198578,1267.668701 433.195831,1257.871094 
	C433.194855,1254.427979 432.509430,1250.833008 433.280273,1247.578125 
	C434.386505,1242.907104 432.371704,1240.301514 428.973999,1237.986206 
	C414.290100,1227.979126 399.572784,1218.020142 384.961761,1207.907715 
	C382.422516,1206.150269 380.531799,1203.459717 378.002502,1201.682861 
	C371.770172,1197.304443 365.336212,1193.213501 358.993683,1188.991455 
	C357.369659,1187.910400 355.783936,1186.771606 354.464355,1185.389648 
	C368.016327,1190.416870 381.388184,1195.470215 394.531433,1201.061035 
	C422.818146,1213.093384 450.919067,1225.563965 479.241943,1237.509033 
	C488.992554,1241.621460 499.001404,1245.361938 509.208527,1248.088623 
	C521.199890,1251.291992 532.806702,1244.889771 536.636963,1233.237915 
	C541.909607,1217.198120 541.316528,1200.832397 537.199341,1184.599731 
	C536.833374,1183.156982 534.638428,1182.178101 533.212891,1180.522339 
	C533.119995,1170.234009 532.984375,1160.404785 533.172058,1150.581665 
	C533.225952,1147.764526 532.249634,1146.459961 529.760986,1145.402954 
	C522.010010,1142.110840 514.358459,1138.584229 506.671570,1135.141357 
	C476.653168,1121.696289 446.618835,1108.286499 416.623657,1094.789673 
	C392.394409,1083.887329 368.212952,1072.878784 344.024506,1061.557861 
	C347.384674,1058.451294 350.346588,1054.899292 354.139709,1053.089600 
	C376.648315,1042.350830 399.300354,1031.907837 422.001923,1021.580200 
	C438.945923,1013.871826 456.072662,1006.566162 473.051788,998.933838 
	C486.092987,993.071655 499.183502,987.284973 511.967529,980.895386 
	C522.559509,975.601318 531.915100,968.417786 535.955139,956.713562 
	C538.200684,950.208130 539.196289,943.228699 540.331177,936.392517 
	C542.074219,925.892761 540.535217,915.530640 537.797485,905.390991 
	C537.325867,903.644043 534.845459,902.439514 533.212646,900.522949 
	C533.132324,886.005005 533.132324,871.948425 533.132324,857.283997 
	C531.019775,858.129456 529.646423,858.611145 528.329773,859.216248 
	C510.530212,867.395630 492.770416,875.662476 474.936523,883.766174 
	C453.992126,893.283325 432.985107,902.662476 412.005280,912.101562 
z"/>
<path fill="#FFA350" opacity="1.000000" stroke="none" 
	d="
M1718.000000,2001.000000 
	C1590.311279,2001.000000 1462.622681,2001.000000 1334.465088,2000.531372 
	C1333.996094,1720.840942 1333.996094,1441.619263 1333.996094,1162.397461 
	C1333.299438,1162.218262 1332.602783,1162.039062 1331.906128,1161.859863 
	C1330.012817,1164.704102 1328.119507,1167.548340 1326.226196,1170.392700 
	C1325.210815,1168.803833 1324.986694,1167.389893 1325.245361,1166.070801 
	C1327.899170,1152.536133 1330.809570,1139.049438 1333.292725,1125.484375 
	C1335.905884,1111.208984 1341.386230,1097.294312 1339.033691,1082.341431 
	C1338.857666,1081.222534 1339.043701,1079.998535 1339.282349,1078.870117 
	C1342.137695,1065.378174 1344.774902,1051.833008 1347.974121,1038.422241 
	C1355.113403,1008.494019 1362.509888,978.626770 1369.854980,948.747742 
	C1378.273926,914.500488 1386.953735,880.315430 1395.066040,845.995972 
	C1397.228394,836.848694 1398.377808,827.335632 1398.764648,817.940002 
	C1399.017456,811.800842 1397.461670,805.407166 1392.094727,800.608032 
	C1394.319702,790.962891 1396.561035,781.707275 1398.847656,771.956482 
	C1398.928589,768.795593 1398.995605,766.129822 1398.995605,763.464111 
	C1399.000366,509.309418 1399.000000,255.154709 1399.000000,1.000000 
	C1504.688721,1.000000 1610.377319,1.000000 1716.537476,1.408809 
	C1717.291626,9.004318 1717.687622,16.188915 1717.821167,23.378387 
	C1717.927368,29.087109 1717.676025,34.801624 1717.649048,40.513878 
	C1717.615845,47.524223 1717.678711,54.535011 1717.648926,61.545387 
	C1717.621094,68.075691 1717.487427,74.605629 1717.471802,81.135895 
	C1717.455811,87.826012 1717.539307,94.516296 1717.555908,101.206566 
	C1717.572021,107.736694 1717.589111,114.267067 1717.549683,120.796997 
	C1717.510376,127.327324 1717.361450,133.857056 1717.333984,140.387360 
	C1717.304565,147.397705 1717.369019,154.408386 1717.376587,161.418945 
	C1717.383423,167.788879 1717.370361,174.158829 1717.363770,180.528778 
	C1717.356689,187.539322 1717.316895,194.549988 1717.346680,201.560379 
	C1717.374512,208.090622 1717.516357,214.620468 1717.531982,221.150665 
	C1717.547974,227.840836 1717.456909,234.531174 1717.440308,241.221512 
	C1717.423950,247.751541 1717.414307,254.281830 1717.453735,260.811676 
	C1717.493042,267.342133 1717.634155,273.872040 1717.661743,280.402435 
	C1717.691406,287.412872 1717.634399,294.423615 1717.626953,301.434235 
	C1717.620117,307.804291 1717.625244,314.174377 1717.631958,320.544434 
	C1717.639282,327.555054 1717.668091,334.565643 1717.661743,341.576263 
	C1717.655884,347.946320 1717.607788,354.316376 1717.592407,360.686462 
	C1717.575806,367.536896 1717.575562,374.387360 1717.568604,381.237823 
	C1717.562012,387.768036 1717.581665,394.298431 1717.542358,400.828461 
	C1717.503052,407.358795 1717.369751,413.888672 1717.342041,420.419006 
	C1717.312378,427.429474 1717.343750,434.440369 1717.374146,441.450928 
	C1717.402466,447.981171 1717.489258,454.511200 1717.505005,461.041443 
	C1717.521240,467.731720 1717.483887,474.422180 1717.467285,481.112549 
	C1717.451050,487.642944 1717.429077,494.173309 1717.414185,500.703705 
	C1717.400024,506.938843 1717.389648,513.174011 1717.381104,519.409119 
	C1717.372314,525.779419 1717.367798,532.149658 1717.361450,538.519958 
	C1717.354492,545.530579 1717.319092,552.541321 1717.348999,559.551758 
	C1717.376831,566.082092 1717.514282,572.611938 1717.529907,579.142212 
	C1717.546021,585.832458 1717.459106,592.522888 1717.442505,599.213318 
	C1717.426270,605.743347 1717.412476,612.273743 1717.451660,618.803589 
	C1717.490967,625.334045 1717.636230,631.863892 1717.663818,638.394348 
	C1717.693359,645.404663 1717.632202,652.415466 1717.624634,659.426025 
	C1717.617798,665.796082 1717.627441,672.166138 1717.634033,678.536194 
	C1717.641357,685.546753 1717.666016,692.557373 1717.659546,699.567932 
	C1717.653687,705.937988 1717.609741,712.308044 1717.594360,718.678101 
	C1717.577759,725.528503 1717.573486,732.378906 1717.566528,739.229309 
	C1717.559814,745.759521 1717.565552,752.289734 1717.549316,758.819946 
	C1717.532715,765.510193 1717.462036,772.200562 1717.478027,778.890747 
	C1717.493652,785.421021 1717.614380,791.951050 1717.642334,798.481384 
	C1717.672363,805.491821 1717.671143,812.502686 1717.641113,819.513123 
	C1717.613037,826.043457 1717.513672,832.573425 1717.474487,839.103760 
	C1717.435181,845.633728 1717.420898,852.164001 1717.414429,858.694092 
	C1717.407593,865.544617 1717.422363,872.395081 1717.429321,879.245605 
	C1717.436035,885.775696 1717.438232,892.305847 1717.454468,898.835938 
	C1717.470947,905.526306 1717.533691,912.216736 1717.517578,918.907043 
	C1717.501831,925.437256 1717.339355,931.967712 1717.375366,938.497314 
	C1717.411377,945.027100 1717.951660,951.571899 1717.644043,958.080444 
	C1717.357544,964.137634 1715.780273,964.901489 1709.979980,963.152405 
	C1706.633545,962.143372 1703.310303,961.010315 1699.904907,960.257568 
	C1696.985840,959.612366 1693.964844,959.428528 1690.625488,959.015198 
	C1616.621704,925.337585 1542.981323,891.685425 1468.581421,857.686157 
	C1468.581421,876.707031 1468.581421,894.836853 1468.225098,913.009583 
	C1466.915649,915.701111 1465.360596,918.300110 1465.136963,921.009033 
	C1464.699829,926.304749 1464.942017,931.662781 1465.016479,936.993347 
	C1465.281250,955.957825 1473.728516,970.190552 1490.401489,979.098694 
	C1503.891479,986.306152 1517.730347,992.860535 1531.415161,999.703125 
	C1563.454956,1015.723633 1595.532104,1031.669922 1627.508545,1047.815796 
	C1635.341187,1051.770752 1642.923218,1056.248169 1650.426147,1060.805298 
	C1651.764160,1061.618042 1652.145996,1064.004883 1652.648926,1065.849243 
	C1629.862183,1076.030884 1607.404053,1086.046997 1584.927612,1096.021606 
	C1547.567261,1112.601318 1510.201416,1129.168701 1472.812988,1145.685059 
	C1470.420532,1146.741821 1468.684204,1147.513794 1468.711670,1150.854492 
	C1468.921753,1176.333618 1468.875122,1201.814941 1468.922607,1227.667480 
	C1470.471680,1235.881470 1474.898926,1241.153687 1482.568726,1243.715698 
	C1492.533325,1247.044556 1501.705444,1243.555176 1510.622437,1240.057861 
	C1532.739502,1231.383667 1554.655273,1222.197510 1576.676514,1213.277344 
	C1596.849731,1205.105713 1617.034058,1196.960693 1637.256470,1188.911987 
	C1645.108521,1185.786865 1653.078735,1182.958618 1661.401611,1179.922852 
	C1669.307861,1178.533447 1676.796143,1177.145264 1684.314575,1175.945312 
	C1686.360962,1175.618652 1689.016968,1175.053589 1690.488159,1176.001709 
	C1693.841064,1178.162476 1696.997681,1177.982788 1700.467285,1177.015503 
	C1703.670532,1176.122681 1706.897217,1175.313965 1710.117188,1174.481812 
	C1716.072754,1172.942383 1718.357788,1174.966553 1717.554321,1180.928101 
	C1717.360718,1182.364868 1717.591553,1183.855835 1717.588501,1185.321899 
	C1717.575317,1191.851807 1717.561157,1198.381836 1717.521729,1204.911621 
	C1717.482300,1211.441650 1717.390259,1217.971191 1717.362305,1224.501221 
	C1717.332275,1231.511475 1717.324097,1238.521973 1717.354126,1245.532227 
	C1717.382080,1252.062134 1717.490479,1258.591797 1717.529907,1265.121704 
	C1717.569214,1271.651489 1717.574463,1278.181641 1717.580933,1284.711548 
	C1717.587646,1291.561646 1717.581177,1298.411865 1717.574463,1305.261963 
	C1717.567993,1311.791870 1717.557739,1318.321899 1717.541504,1324.851807 
	C1717.524902,1331.541748 1717.469727,1338.231934 1717.485962,1344.921753 
	C1717.501709,1351.451782 1717.606934,1357.981445 1717.635010,1364.511475 
	C1717.665039,1371.521606 1717.677979,1378.532227 1717.648193,1385.542358 
	C1717.620483,1392.072388 1717.488281,1398.602051 1717.472534,1405.132080 
	C1717.456421,1411.822021 1717.538330,1418.512085 1717.554932,1425.202148 
	C1717.571167,1431.732056 1717.590454,1438.262207 1717.551025,1444.791870 
	C1717.511597,1451.322021 1717.311890,1457.852051 1717.346436,1464.381348 
	C1717.380859,1470.909668 1717.764160,1477.437622 1717.731934,1483.964478 
	C1717.685913,1493.266235 1717.322632,1502.566162 1717.238892,1511.868286 
	C1717.155029,1521.198730 1717.240479,1530.531006 1717.265381,1539.862427 
	C1717.281982,1546.071289 1717.336182,1552.280273 1717.348999,1558.489136 
	C1717.363525,1565.499512 1717.327026,1572.509888 1717.357178,1579.520142 
	C1717.385132,1586.050171 1717.487427,1592.579712 1717.526855,1599.109741 
	C1717.566162,1605.639526 1717.577637,1612.169678 1717.583984,1618.699585 
	C1717.590698,1625.549683 1717.578491,1632.399780 1717.571533,1639.249878 
	C1717.565063,1645.779785 1717.560791,1652.309814 1717.544556,1658.839722 
	C1717.527954,1665.529663 1717.466797,1672.219849 1717.482910,1678.909668 
	C1717.498657,1685.439697 1717.609985,1691.969482 1717.637939,1698.499512 
	C1717.667847,1705.509644 1717.675293,1712.520142 1717.645508,1719.530273 
	C1717.617676,1726.060303 1717.491211,1732.590088 1717.475586,1739.120117 
	C1717.459595,1745.809937 1717.535156,1752.500122 1717.551636,1759.190063 
	C1717.567871,1765.719971 1717.593384,1772.250244 1717.553955,1778.779907 
	C1717.514526,1785.310059 1717.309326,1791.840088 1717.343506,1798.369385 
	C1717.377808,1804.897583 1717.765747,1811.425415 1717.733398,1817.952148 
	C1717.687378,1827.253906 1717.251465,1836.554565 1717.256714,1845.855591 
	C1717.261963,1855.156860 1717.761353,1864.458008 1717.756104,1873.759033 
	C1717.750854,1883.060303 1717.224487,1892.361450 1717.229858,1901.662476 
	C1717.235107,1910.963745 1717.788208,1920.264771 1717.782959,1929.565796 
	C1717.777710,1938.867065 1717.276367,1948.166992 1717.179443,1957.469482 
	C1717.072266,1967.742065 1717.102783,1978.017700 1717.227173,1988.290161 
	C1717.278442,1992.529297 1717.730347,1996.763550 1718.000000,2001.000000 
z"/>
<path fill="#FFB753" opacity="1.000000" stroke="none" 
	d="
M815.468689,2001.000000 
	C815.187744,1982.729370 815.500671,1964.458740 815.523621,1946.187988 
	C815.541931,1931.548462 815.069641,1916.908325 815.069641,1902.268555 
	C815.069641,1887.628784 815.524048,1872.989014 815.524292,1858.349243 
	C815.524536,1843.709473 815.073730,1829.069580 815.070190,1814.429810 
	C815.066650,1799.789307 815.485107,1785.149048 815.506409,1770.508423 
	C815.523560,1758.667236 815.112915,1746.825806 815.098877,1734.984253 
	C815.084595,1722.972778 815.417114,1710.961060 815.425964,1698.949341 
	C815.434631,1687.110107 815.160645,1675.270630 815.137329,1663.431152 
	C815.118896,1654.049561 815.355286,1644.667847 815.362122,1635.286133 
	C815.368896,1626.079834 815.176697,1616.873413 815.167725,1607.667114 
	C815.158569,1598.284180 815.305115,1588.901123 815.311768,1579.518188 
	C815.318298,1570.313232 815.204102,1561.108154 815.199219,1551.903198 
	C815.194580,1543.151489 815.273193,1534.399780 815.296143,1525.648071 
	C815.319824,1516.604126 815.321960,1507.560181 815.330750,1498.516235 
	C815.340210,1488.807739 815.373291,1479.098999 815.346436,1469.390625 
	C815.320984,1460.184814 815.205017,1450.979370 815.177429,1441.773560 
	C815.149780,1432.552490 815.166748,1423.331299 815.192749,1414.110107 
	C815.218750,1404.905029 815.294678,1395.700073 815.322021,1386.494995 
	C815.350891,1376.786499 815.377502,1367.077759 815.351074,1357.369385 
	C815.325928,1348.163452 815.187500,1338.957642 815.178528,1329.751831 
	C815.169373,1320.368408 815.271667,1310.984863 815.298157,1301.601440 
	C815.323608,1292.558838 815.311462,1283.516357 815.321594,1274.473755 
	C815.332520,1264.765259 815.381775,1255.056519 815.355652,1245.348145 
	C815.330872,1236.142090 815.199890,1226.936279 815.171692,1217.730225 
	C815.143372,1208.509277 815.187927,1199.287964 815.194092,1190.066895 
	C815.200317,1180.700073 815.192749,1171.333130 815.201965,1161.966309 
	C815.211121,1152.581543 815.268982,1143.196777 815.236145,1133.812134 
	C815.218323,1128.710205 815.272278,1123.588745 814.806580,1118.520996 
	C814.690918,1117.261841 812.866272,1115.471191 811.517944,1115.123169 
	C801.230530,1112.468262 790.890686,1109.999878 780.511414,1107.728638 
	C777.467896,1107.062622 774.229553,1107.341675 771.107910,1106.961670 
	C768.498657,1106.644165 765.754150,1106.415527 763.374451,1105.419312 
	C755.211487,1102.001587 746.643433,1105.523560 744.303345,1114.036255 
	C742.996704,1118.789551 742.115540,1123.827393 742.096741,1128.740967 
	C741.930176,1172.223633 742.190979,1215.708862 741.830444,1259.189087 
	C741.762573,1267.373535 740.299072,1275.767456 738.059570,1283.661865 
	C734.519958,1296.138550 723.136841,1304.348267 710.128845,1304.948242 
	C703.877380,1305.236816 697.600220,1305.047607 691.337341,1304.931519 
	C690.312378,1304.912598 689.301147,1304.151123 688.607727,1303.366455 
	C694.227234,1302.646118 699.547791,1302.508789 704.813232,1301.896973 
	C719.508728,1300.189819 729.651733,1291.271729 732.943359,1276.821777 
	C734.150635,1271.522095 734.894409,1265.993530 734.913208,1260.566040 
	C735.067200,1216.101807 734.817200,1171.635254 735.185669,1127.173584 
	C735.244873,1120.035034 736.522095,1112.356201 739.425720,1105.913940 
	C744.429199,1094.812622 755.619263,1093.170776 766.212097,1093.145508 
	C797.487183,1093.070923 828.763306,1093.841064 860.040039,1093.925415 
	C877.658752,1093.973022 895.307373,1093.815186 912.889709,1092.818115 
	C925.782227,1092.086914 936.701111,1086.399536 941.457336,1073.607910 
	C947.973816,1056.081909 947.785156,1038.095825 942.111023,1020.293396 
	C941.458740,1018.246826 939.146301,1016.729370 937.480835,1014.515259 
	C937.358093,1002.941956 937.358093,991.820007 937.358093,980.167542 
	C934.834900,980.167542 932.881958,980.167542 930.929016,980.167480 
	C865.782349,980.165527 800.635620,980.165466 735.488953,980.152344 
	C733.328613,980.151917 731.168213,980.019409 728.992188,979.623535 
	C728.381042,978.527527 727.785583,977.756348 727.119751,976.522095 
	C727.096252,953.044189 727.143188,930.029236 727.513794,906.904175 
	C728.919006,904.611267 730.294250,902.523010 731.031738,900.229614 
	C734.431946,889.655457 741.603699,883.682190 752.488831,881.859192 
	C763.686279,879.984070 774.830078,880.030212 786.186707,880.786377 
	C803.254639,881.922791 820.414551,881.737488 837.537231,881.980469 
	C865.482910,882.377014 893.429688,882.761963 921.377258,882.909729 
	C926.303467,882.935791 931.320862,882.161926 936.147278,881.088379 
	C945.403442,879.029541 952.528809,873.802795 956.452087,865.002380 
	C963.499939,849.193176 961.992249,832.896484 958.544800,816.604736 
	C958.322754,815.555298 956.505432,814.843445 955.338013,813.515869 
	C955.245850,799.664307 955.245850,786.271301 955.245850,772.496582 
	C952.556396,772.496582 950.583130,772.496521 948.609863,772.496643 
	C903.389771,772.499817 858.169617,772.507263 812.949524,772.491638 
	C810.968750,772.490967 808.988098,772.278564 807.007446,772.164734 
	C807.322021,771.598999 807.496094,770.759583 807.974915,770.513794 
	C810.295715,769.322510 814.129456,768.814758 814.761658,767.088501 
	C815.928528,763.902466 815.305847,760.034790 815.301575,756.451172 
	C815.290222,747.068481 815.189270,737.685974 815.163757,728.303284 
	C815.137817,718.772461 815.139771,709.241516 815.165527,699.710693 
	C815.190857,690.327881 815.280396,680.945312 815.306519,671.562500 
	C815.331665,662.520508 815.331360,653.478333 815.306213,644.436340 
	C815.280151,635.053528 815.191162,625.670959 815.165833,616.288147 
	C815.140076,606.757324 815.152649,597.226379 815.159302,587.695496 
	C815.165771,578.474915 815.192505,569.254333 815.198730,560.033752 
	C815.205017,550.667419 815.184021,541.301086 815.199219,531.934753 
	C815.213440,523.183411 815.282043,514.432007 815.285461,505.680664 
	C815.289124,496.475494 815.233582,487.270325 815.222839,478.065155 
	C815.211914,468.680725 815.217896,459.296326 815.227600,449.911896 
	C815.237122,440.708191 815.266663,431.504456 815.276611,422.300751 
	C815.286987,412.754578 815.278992,403.208405 815.288818,393.662231 
	C815.298157,384.620270 815.325134,375.578278 815.334900,366.536316 
	C815.345276,356.828400 815.369019,347.120422 815.341919,337.412598 
	C815.316162,328.207520 815.207947,319.002686 815.180542,309.797607 
	C815.153076,300.577148 815.162659,291.356506 815.189209,282.136017 
	C815.215759,272.931366 815.301147,263.726868 815.328003,254.522186 
	C815.356262,244.814346 815.371826,235.106323 815.344971,225.398514 
	C815.319458,216.193375 815.206299,206.988480 815.178650,197.783340 
	C815.151001,188.562912 815.164795,179.342270 815.191101,170.121811 
	C815.217407,160.917236 815.297974,151.712830 815.325073,142.508255 
	C815.353577,132.800415 815.374451,123.092384 815.347839,113.384583 
	C815.322632,104.179321 815.226440,94.974274 815.170654,85.769073 
	C815.117798,77.045021 814.988708,68.320229 815.054871,59.596992 
	C815.124756,50.386574 815.534119,41.177429 815.523376,31.968042 
	C815.511658,21.925488 815.187805,11.883296 815.000061,1.420473 
	C923.354248,1.000000 1031.708496,1.000000 1140.511230,1.399055 
	C1140.701416,11.822485 1140.332153,21.845587 1140.217285,31.871609 
	C1140.111816,41.077499 1140.322754,50.286560 1140.316650,59.494171 
	C1140.310425,68.879684 1140.184082,78.265053 1140.157349,87.650627 
	C1140.130127,97.184593 1140.158691,106.718719 1140.165894,116.252777 
	C1140.172852,125.476448 1140.186768,134.700119 1140.192505,143.923782 
	C1140.198242,153.293182 1140.192139,162.662582 1140.201782,172.031982 
	C1140.211548,181.419235 1140.241211,190.806503 1140.249512,200.193756 
	C1140.257812,209.400528 1140.256104,218.607315 1140.247803,227.814087 
	C1140.239502,237.201385 1140.212646,246.588669 1140.203003,255.975967 
	C1140.193481,265.345367 1140.197388,274.714752 1140.191528,284.084167 
	C1140.185791,293.307800 1140.147339,302.531494 1140.174805,311.755005 
	C1140.202271,320.963379 1140.322876,330.171478 1140.348633,339.379852 
	C1140.375732,349.090851 1140.341064,358.802063 1140.329834,368.513184 
	C1140.319214,377.558136 1140.300415,386.603088 1140.291870,395.648041 
	C1140.282715,405.197357 1140.286499,414.746674 1140.275269,424.295990 
	C1140.264526,433.502747 1140.235107,442.709534 1140.226318,451.916290 
	C1140.217407,461.303802 1140.215332,470.691284 1140.225586,480.078796 
	C1140.235718,489.287018 1140.287842,498.495300 1140.280029,507.703491 
	C1140.270386,519.090515 1140.188599,530.477478 1140.192871,541.864502 
	C1140.196411,551.072144 1140.324219,560.279785 1140.318115,569.487427 
	C1140.311890,578.872803 1140.155884,588.258240 1140.164429,597.643555 
	C1140.172729,606.852539 1140.371704,616.061401 1140.365234,625.270264 
	C1140.358765,634.654419 1140.118042,644.038696 1140.135986,653.422546 
	C1140.158569,665.265320 1140.433716,677.107910 1140.425415,688.950439 
	C1140.416870,700.965393 1140.085327,712.980408 1140.098999,724.995117 
	C1140.112427,736.839783 1140.446777,748.683716 1140.519897,760.528748 
	C1140.600098,773.524170 1140.600952,786.520874 1140.495850,799.515869 
	C1140.474854,802.119019 1139.820923,804.716980 1139.267212,808.692505 
	C1137.790894,806.188232 1137.217163,805.003357 1136.453979,803.956604 
	C1132.746704,798.871460 1129.306274,793.534302 1125.092896,788.903809 
	C1123.399048,787.042603 1120.035889,786.304688 1117.308472,785.906616 
	C1115.181274,785.596191 1112.862061,786.602051 1110.421387,786.711304 
	C1109.084717,781.772461 1107.954956,777.145142 1106.898926,772.820129 
	C1076.937256,772.820129 1047.566406,772.820129 1017.696045,772.820129 
	C1018.509277,776.067200 1019.249817,778.883057 1019.917053,781.716187 
	C1021.663696,789.132141 1023.378479,796.555664 1024.748291,804.043213 
	C1023.107239,805.711487 1021.416260,807.131042 1020.608032,808.944092 
	C1016.115723,819.022095 1018.343628,829.302795 1020.694153,839.287292 
	C1032.322510,888.681519 1044.183350,938.021423 1056.091064,987.349304 
	C1065.811279,1027.614746 1075.690308,1067.841919 1085.540283,1108.075928 
	C1099.034546,1163.195557 1112.447388,1218.335693 1126.182495,1273.395508 
	C1129.057861,1284.921265 1133.647217,1296.130981 1143.127686,1303.885620 
	C1155.892090,1314.326294 1171.480591,1319.025879 1187.191284,1322.893188 
	C1193.597168,1324.470093 1200.334839,1324.656860 1206.845459,1325.881714 
	C1208.371948,1326.168945 1210.627441,1327.989380 1210.766846,1329.294434 
	C1211.339111,1334.653931 1211.285278,1340.085938 1211.346313,1345.492676 
	C1211.421997,1352.202026 1211.382446,1358.912720 1211.394775,1365.622803 
	C1211.406738,1372.159424 1211.456177,1378.696045 1211.425537,1385.232544 
	C1211.394775,1391.780518 1211.248047,1398.328125 1211.219482,1404.876099 
	C1211.176880,1414.676392 1211.186157,1424.476807 1211.186401,1434.277222 
	C1211.186646,1440.501831 1211.215332,1446.726318 1211.222412,1452.950928 
	C1211.230225,1459.971069 1211.223877,1466.991089 1211.231445,1474.011230 
	C1211.238281,1480.399536 1211.223511,1486.787964 1211.277832,1493.175903 
	C1211.333496,1499.712524 1211.552856,1506.248779 1211.534790,1512.784668 
	C1211.510742,1521.480103 1211.279663,1530.174561 1211.223755,1538.869995 
	C1211.160645,1548.670410 1211.187134,1558.471313 1211.187134,1568.272095 
	C1211.187256,1574.496582 1211.214478,1580.721191 1211.221436,1586.945679 
	C1211.229248,1593.965820 1211.206909,1600.985962 1211.237061,1608.005981 
	C1211.265259,1614.554810 1211.364624,1621.103394 1211.397339,1627.652222 
	C1211.430054,1634.188721 1211.449341,1640.725464 1211.418213,1647.261963 
	C1211.387085,1653.810181 1211.253784,1660.357910 1211.224365,1666.906128 
	C1211.192993,1673.926147 1211.230713,1680.946289 1211.237793,1687.966431 
	C1211.244263,1694.355103 1211.211914,1700.744019 1211.266846,1707.132202 
	C1211.323242,1713.668945 1211.567505,1720.205078 1211.544800,1726.740845 
	C1211.512329,1736.065796 1211.194824,1745.390503 1211.215576,1754.714722 
	C1211.236084,1763.869873 1211.673096,1773.024536 1211.658813,1782.178955 
	C1211.644287,1791.500610 1211.146362,1800.821777 1211.147705,1810.143066 
	C1211.148926,1819.462524 1211.682373,1828.782349 1211.663696,1838.101318 
	C1211.639771,1850.038330 1211.114868,1861.974976 1211.138306,1873.911133 
	C1211.166992,1888.462524 1211.622314,1903.012817 1211.741455,1917.564697 
	C1211.849976,1930.807617 1211.721069,1944.052246 1211.759766,1957.296021 
	C1211.802368,1971.864136 1211.916870,1986.432007 1212.000000,2001.000000 
	C1079.979126,2001.000000 947.958191,2001.000000 815.468689,2001.000000 
z"/>
<path fill="#FF964E" opacity="1.000000" stroke="none" 
	d="
M1690.988892,959.040649 
	C1693.964844,959.428528 1696.985840,959.612366 1699.904907,960.257568 
	C1703.310303,961.010315 1706.633545,962.143372 1709.979980,963.152405 
	C1715.780273,964.901489 1717.357544,964.137634 1717.644043,958.080444 
	C1717.951660,951.571899 1717.411377,945.027100 1717.375366,938.497314 
	C1717.339355,931.967712 1717.501831,925.437256 1717.517578,918.907043 
	C1717.533691,912.216736 1717.470947,905.526306 1717.454468,898.835938 
	C1717.438232,892.305847 1717.436035,885.775696 1717.429321,879.245605 
	C1717.422363,872.395081 1717.407593,865.544617 1717.414429,858.694092 
	C1717.420898,852.164001 1717.435181,845.633728 1717.474487,839.103760 
	C1717.513672,832.573425 1717.613037,826.043457 1717.641113,819.513123 
	C1717.671143,812.502686 1717.672363,805.491821 1717.642334,798.481384 
	C1717.614380,791.951050 1717.493652,785.421021 1717.478027,778.890747 
	C1717.462036,772.200562 1717.532715,765.510193 1717.549316,758.819946 
	C1717.565552,752.289734 1717.559814,745.759521 1717.566528,739.229309 
	C1717.573486,732.378906 1717.577759,725.528503 1717.594360,718.678101 
	C1717.609741,712.308044 1717.653687,705.937988 1717.659546,699.567932 
	C1717.666016,692.557373 1717.641357,685.546753 1717.634033,678.536194 
	C1717.627441,672.166138 1717.617798,665.796082 1717.624634,659.426025 
	C1717.632202,652.415466 1717.693359,645.404663 1717.663818,638.394348 
	C1717.636230,631.863892 1717.490967,625.334045 1717.451660,618.803589 
	C1717.412476,612.273743 1717.426270,605.743347 1717.442505,599.213318 
	C1717.459106,592.522888 1717.546021,585.832458 1717.529907,579.142212 
	C1717.514282,572.611938 1717.376831,566.082092 1717.348999,559.551758 
	C1717.319092,552.541321 1717.354492,545.530579 1717.361450,538.519958 
	C1717.367798,532.149658 1717.372314,525.779419 1717.381104,519.409119 
	C1717.389648,513.174011 1717.400024,506.938843 1717.414185,500.703705 
	C1717.429077,494.173309 1717.451050,487.642944 1717.467285,481.112549 
	C1717.483887,474.422180 1717.521240,467.731720 1717.505005,461.041443 
	C1717.489258,454.511200 1717.402466,447.981171 1717.374146,441.450928 
	C1717.343750,434.440369 1717.312378,427.429474 1717.342041,420.419006 
	C1717.369751,413.888672 1717.503052,407.358795 1717.542358,400.828461 
	C1717.581665,394.298431 1717.562012,387.768036 1717.568604,381.237823 
	C1717.575562,374.387360 1717.575806,367.536896 1717.592407,360.686462 
	C1717.607788,354.316376 1717.655884,347.946320 1717.661743,341.576263 
	C1717.668091,334.565643 1717.639282,327.555054 1717.631958,320.544434 
	C1717.625244,314.174377 1717.620117,307.804291 1717.626953,301.434235 
	C1717.634399,294.423615 1717.691406,287.412872 1717.661743,280.402435 
	C1717.634155,273.872040 1717.493042,267.342133 1717.453735,260.811676 
	C1717.414307,254.281830 1717.423950,247.751541 1717.440308,241.221512 
	C1717.456909,234.531174 1717.547974,227.840836 1717.531982,221.150665 
	C1717.516357,214.620468 1717.374512,208.090622 1717.346680,201.560379 
	C1717.316895,194.549988 1717.356689,187.539322 1717.363770,180.528778 
	C1717.370361,174.158829 1717.383423,167.788879 1717.376587,161.418945 
	C1717.369019,154.408386 1717.304565,147.397705 1717.333984,140.387360 
	C1717.361450,133.857056 1717.510376,127.327324 1717.549683,120.796997 
	C1717.589111,114.267067 1717.572021,107.736694 1717.555908,101.206566 
	C1717.539307,94.516296 1717.455811,87.826012 1717.471802,81.135895 
	C1717.487427,74.605629 1717.621094,68.075691 1717.648926,61.545387 
	C1717.678711,54.535011 1717.615845,47.524223 1717.649048,40.513878 
	C1717.676025,34.801624 1717.927368,29.087109 1717.821167,23.378387 
	C1717.687622,16.188915 1717.291626,9.004318 1717.004395,1.408809 
	C1811.650513,1.000000 1906.301147,1.000000 2000.947998,1.000001 
	C2000.944336,667.666687 2000.944336,1334.333374 2000.944336,2001.000000 
	C1906.904907,2001.000000 1812.921021,2001.000000 1718.468750,2001.000000 
	C1717.730347,1996.763550 1717.278442,1992.529297 1717.227173,1988.290161 
	C1717.102783,1978.017700 1717.072266,1967.742065 1717.179443,1957.469482 
	C1717.276367,1948.166992 1717.777710,1938.867065 1717.782959,1929.565796 
	C1717.788208,1920.264771 1717.235107,1910.963745 1717.229858,1901.662476 
	C1717.224487,1892.361450 1717.750854,1883.060303 1717.756104,1873.759033 
	C1717.761353,1864.458008 1717.261963,1855.156860 1717.256714,1845.855591 
	C1717.251465,1836.554565 1717.687378,1827.253906 1717.733398,1817.952148 
	C1717.765747,1811.425415 1717.377808,1804.897583 1717.343506,1798.369385 
	C1717.309326,1791.840088 1717.514526,1785.310059 1717.553955,1778.779907 
	C1717.593384,1772.250244 1717.567871,1765.719971 1717.551636,1759.190063 
	C1717.535156,1752.500122 1717.459595,1745.809937 1717.475586,1739.120117 
	C1717.491211,1732.590088 1717.617676,1726.060303 1717.645508,1719.530273 
	C1717.675293,1712.520142 1717.667847,1705.509644 1717.637939,1698.499512 
	C1717.609985,1691.969482 1717.498657,1685.439697 1717.482910,1678.909668 
	C1717.466797,1672.219849 1717.527954,1665.529663 1717.544556,1658.839722 
	C1717.560791,1652.309814 1717.565063,1645.779785 1717.571533,1639.249878 
	C1717.578491,1632.399780 1717.590698,1625.549683 1717.583984,1618.699585 
	C1717.577637,1612.169678 1717.566162,1605.639526 1717.526855,1599.109741 
	C1717.487427,1592.579712 1717.385132,1586.050171 1717.357178,1579.520142 
	C1717.327026,1572.509888 1717.363525,1565.499512 1717.348999,1558.489136 
	C1717.336182,1552.280273 1717.281982,1546.071289 1717.265381,1539.862427 
	C1717.240479,1530.531006 1717.155029,1521.198730 1717.238892,1511.868286 
	C1717.322632,1502.566162 1717.685913,1493.266235 1717.731934,1483.964478 
	C1717.764160,1477.437622 1717.380859,1470.909668 1717.346436,1464.381348 
	C1717.311890,1457.852051 1717.511597,1451.322021 1717.551025,1444.791870 
	C1717.590454,1438.262207 1717.571167,1431.732056 1717.554932,1425.202148 
	C1717.538330,1418.512085 1717.456421,1411.822021 1717.472534,1405.132080 
	C1717.488281,1398.602051 1717.620483,1392.072388 1717.648193,1385.542358 
	C1717.677979,1378.532227 1717.665039,1371.521606 1717.635010,1364.511475 
	C1717.606934,1357.981445 1717.501709,1351.451782 1717.485962,1344.921753 
	C1717.469727,1338.231934 1717.524902,1331.541748 1717.541504,1324.851807 
	C1717.557739,1318.321899 1717.567993,1311.791870 1717.574463,1305.261963 
	C1717.581177,1298.411865 1717.587646,1291.561646 1717.580933,1284.711548 
	C1717.574463,1278.181641 1717.569214,1271.651489 1717.529907,1265.121704 
	C1717.490479,1258.591797 1717.382080,1252.062134 1717.354126,1245.532227 
	C1717.324097,1238.521973 1717.332275,1231.511475 1717.362305,1224.501221 
	C1717.390259,1217.971191 1717.482300,1211.441650 1717.521729,1204.911621 
	C1717.561157,1198.381836 1717.575317,1191.851807 1717.588501,1185.321899 
	C1717.591553,1183.855835 1717.360718,1182.364868 1717.554321,1180.928101 
	C1718.357788,1174.966553 1716.072754,1172.942383 1710.117188,1174.481812 
	C1706.897217,1175.313965 1703.670532,1176.122681 1700.467285,1177.015503 
	C1696.997681,1177.982788 1693.841064,1178.162476 1690.488159,1176.001709 
	C1689.016968,1175.053589 1686.360962,1175.618652 1684.314575,1175.945312 
	C1676.796143,1177.145264 1669.307861,1178.533447 1661.489746,1179.591064 
	C1667.342163,1175.937744 1673.580322,1172.658203 1679.649902,1169.091919 
	C1681.962280,1167.733154 1683.888184,1165.716675 1686.374634,1163.982910 
	C1689.109863,1163.175171 1691.535522,1162.555786 1693.799561,1161.566650 
	C1712.661011,1153.325684 1731.633911,1145.317993 1750.268066,1136.588623 
	C1758.464233,1132.749146 1766.495728,1128.101318 1773.640747,1122.577393 
	C1785.715576,1113.241821 1789.245361,1099.458740 1789.902710,1084.979614 
	C1790.392212,1074.194824 1790.815918,1063.288086 1789.742065,1052.588867 
	C1788.880127,1044.000732 1785.901978,1035.590820 1783.442383,1027.225464 
	C1782.944580,1025.532349 1780.563354,1024.392944 1778.960693,1022.537170 
	C1778.855835,1015.924316 1778.662842,1009.765686 1778.899048,1003.623535 
	C1779.020996,1000.457397 1777.873535,998.974854 1774.999878,997.734253 
	C1765.559448,993.658752 1756.251953,989.273193 1746.916260,984.957581 
	C1728.265747,976.335876 1709.630493,967.681458 1690.988892,959.040649 
z"/>
<path fill="#FFAD51" opacity="1.000000" stroke="none" 
	d="
M1110.628174,787.022949 
	C1112.862061,786.602051 1115.181274,785.596191 1117.308472,785.906616 
	C1120.035889,786.304688 1123.399048,787.042603 1125.092896,788.903809 
	C1129.306274,793.534302 1132.746704,798.871460 1136.453979,803.956604 
	C1137.217163,805.003357 1137.790894,806.188232 1139.267212,808.692505 
	C1139.820923,804.716980 1140.474854,802.119019 1140.495850,799.515869 
	C1140.600952,786.520874 1140.600098,773.524170 1140.519897,760.528748 
	C1140.446777,748.683716 1140.112427,736.839783 1140.098999,724.995117 
	C1140.085327,712.980408 1140.416870,700.965393 1140.425415,688.950439 
	C1140.433716,677.107910 1140.158569,665.265320 1140.135986,653.422546 
	C1140.118042,644.038696 1140.358765,634.654419 1140.365234,625.270264 
	C1140.371704,616.061401 1140.172729,606.852539 1140.164429,597.643555 
	C1140.155884,588.258240 1140.311890,578.872803 1140.318115,569.487427 
	C1140.324219,560.279785 1140.196411,551.072144 1140.192871,541.864502 
	C1140.188599,530.477478 1140.270386,519.090515 1140.280029,507.703491 
	C1140.287842,498.495300 1140.235718,489.287018 1140.225586,480.078796 
	C1140.215332,470.691284 1140.217407,461.303802 1140.226318,451.916290 
	C1140.235107,442.709534 1140.264526,433.502747 1140.275269,424.295990 
	C1140.286499,414.746674 1140.282715,405.197357 1140.291870,395.648041 
	C1140.300415,386.603088 1140.319214,377.558136 1140.329834,368.513184 
	C1140.341064,358.802063 1140.375732,349.090851 1140.348633,339.379852 
	C1140.322876,330.171478 1140.202271,320.963379 1140.174805,311.755005 
	C1140.147339,302.531494 1140.185791,293.307800 1140.191528,284.084167 
	C1140.197388,274.714752 1140.193481,265.345367 1140.203003,255.975967 
	C1140.212646,246.588669 1140.239502,237.201385 1140.247803,227.814087 
	C1140.256104,218.607315 1140.257812,209.400528 1140.249512,200.193756 
	C1140.241211,190.806503 1140.211548,181.419235 1140.201782,172.031982 
	C1140.192139,162.662582 1140.198242,153.293182 1140.192505,143.923782 
	C1140.186768,134.700119 1140.172852,125.476448 1140.165894,116.252777 
	C1140.158691,106.718719 1140.130127,97.184593 1140.157349,87.650627 
	C1140.184082,78.265053 1140.310425,68.879684 1140.316650,59.494171 
	C1140.322754,50.286560 1140.111816,41.077499 1140.217285,31.871609 
	C1140.332153,21.845587 1140.701416,11.822485 1140.979858,1.399055 
	C1226.687622,1.000000 1312.375122,1.000000 1398.531372,1.000000 
	C1399.000000,255.154709 1399.000366,509.309418 1398.995605,763.464111 
	C1398.995605,766.129822 1398.928589,768.795593 1398.391968,771.968628 
	C1370.464844,772.478821 1343.038452,772.526855 1315.612671,772.426270 
	C1312.244019,772.413940 1310.961304,773.333191 1310.233154,776.885376 
	C1308.566040,785.015808 1306.092651,792.980896 1303.606934,801.075806 
	C1301.875488,802.698914 1299.924072,804.033691 1299.188477,805.858582 
	C1295.903564,814.007080 1292.083862,822.083740 1290.046387,830.567993 
	C1277.467773,882.945190 1265.354248,935.434021 1253.015991,987.869141 
	C1242.733276,1031.569092 1232.463501,1075.272949 1221.902710,1118.905884 
	C1220.274048,1125.634888 1217.670410,1132.279297 1214.504517,1138.442261 
	C1211.344727,1144.593384 1206.674194,1144.567383 1203.320679,1138.769165 
	C1200.843994,1134.487061 1198.537476,1129.892090 1197.306396,1125.138306 
	C1188.053589,1089.406738 1178.975220,1053.628906 1170.065308,1017.809937 
	C1163.041504,989.573486 1156.343628,961.256042 1149.485596,932.978333 
	C1143.528809,908.416626 1137.683960,883.826599 1131.528442,859.314697 
	C1128.129028,845.777527 1124.257202,832.356750 1120.407837,818.938171 
	C1119.977539,817.438354 1118.302246,816.295715 1116.998535,814.641846 
	C1114.737915,805.205139 1112.682983,796.114014 1110.628174,787.022949 
z"/>
<path fill="#F1A64D" opacity="1.000000" stroke="none" 
	d="
M1212.468628,2001.000000 
	C1211.916870,1986.432007 1211.802368,1971.864136 1211.759766,1957.296021 
	C1211.721069,1944.052246 1211.849976,1930.807617 1211.741455,1917.564697 
	C1211.622314,1903.012817 1211.166992,1888.462524 1211.138306,1873.911133 
	C1211.114868,1861.974976 1211.639771,1850.038330 1211.663696,1838.101318 
	C1211.682373,1828.782349 1211.148926,1819.462524 1211.147705,1810.143066 
	C1211.146362,1800.821777 1211.644287,1791.500610 1211.658813,1782.178955 
	C1211.673096,1773.024536 1211.236084,1763.869873 1211.215576,1754.714722 
	C1211.194824,1745.390503 1211.512329,1736.065796 1211.544800,1726.740845 
	C1211.567505,1720.205078 1211.323242,1713.668945 1211.266846,1707.132202 
	C1211.211914,1700.744019 1211.244263,1694.355103 1211.237793,1687.966431 
	C1211.230713,1680.946289 1211.192993,1673.926147 1211.224365,1666.906128 
	C1211.253784,1660.357910 1211.387085,1653.810181 1211.418213,1647.261963 
	C1211.449341,1640.725464 1211.430054,1634.188721 1211.397339,1627.652222 
	C1211.364624,1621.103394 1211.265259,1614.554810 1211.237061,1608.005981 
	C1211.206909,1600.985962 1211.229248,1593.965820 1211.221436,1586.945679 
	C1211.214478,1580.721191 1211.187256,1574.496582 1211.187134,1568.272095 
	C1211.187134,1558.471313 1211.160645,1548.670410 1211.223755,1538.869995 
	C1211.279663,1530.174561 1211.510742,1521.480103 1211.534790,1512.784668 
	C1211.552856,1506.248779 1211.333496,1499.712524 1211.277832,1493.175903 
	C1211.223511,1486.787964 1211.238281,1480.399536 1211.231445,1474.011230 
	C1211.223877,1466.991089 1211.230225,1459.971069 1211.222412,1452.950928 
	C1211.215332,1446.726318 1211.186646,1440.501831 1211.186401,1434.277222 
	C1211.186157,1424.476807 1211.176880,1414.676392 1211.219482,1404.876099 
	C1211.248047,1398.328125 1211.394775,1391.780518 1211.425537,1385.232544 
	C1211.456177,1378.696045 1211.406738,1372.159424 1211.394775,1365.622803 
	C1211.382446,1358.912720 1211.421997,1352.202026 1211.346313,1345.492676 
	C1211.285278,1340.085938 1211.339111,1334.653931 1210.766846,1329.294434 
	C1210.627441,1327.989380 1208.371948,1326.168945 1206.845459,1325.881714 
	C1200.334839,1324.656860 1193.597168,1324.470093 1187.191284,1322.893188 
	C1171.480591,1319.025879 1155.892090,1314.326294 1143.127686,1303.885620 
	C1133.647217,1296.130981 1129.057861,1284.921265 1126.182495,1273.395508 
	C1112.447388,1218.335693 1099.034546,1163.195557 1085.540283,1108.075928 
	C1075.690308,1067.841919 1065.811279,1027.614746 1056.091064,987.349304 
	C1044.183350,938.021423 1032.322510,888.681519 1020.694153,839.287292 
	C1018.343628,829.302795 1016.115723,819.022095 1020.608032,808.944092 
	C1021.416260,807.131042 1023.107239,805.711487 1025.073486,804.214111 
	C1027.209961,810.280029 1028.552856,816.271851 1030.136108,822.199402 
	C1037.659424,850.365540 1045.366943,878.483093 1052.778320,906.678528 
	C1059.398804,931.865051 1065.614136,957.157898 1072.201538,982.353333 
	C1078.029419,1004.644287 1084.170166,1026.853271 1090.087891,1049.120972 
	C1097.059326,1075.354248 1103.964966,1101.604980 1110.852295,1127.860352 
	C1119.628784,1161.317749 1128.346313,1194.790527 1137.114258,1228.250122 
	C1140.813599,1242.367676 1144.576660,1256.468384 1148.379150,1270.834473 
	C1150.347046,1270.834473 1151.993652,1270.834351 1153.640259,1270.834351 
	C1189.139648,1270.836060 1224.639526,1270.752319 1260.137817,1270.954102 
	C1264.292603,1270.977783 1265.811523,1269.693848 1266.851440,1265.816772 
	C1302.872925,1131.542603 1338.993042,997.294922 1375.133301,863.052673 
	C1380.708130,842.344910 1386.447510,821.681396 1392.110962,800.997498 
	C1397.461670,805.407166 1399.017456,811.800842 1398.764648,817.940002 
	C1398.377808,827.335632 1397.228394,836.848694 1395.066040,845.995972 
	C1386.953735,880.315430 1378.273926,914.500488 1369.854980,948.747742 
	C1362.509888,978.626770 1355.113403,1008.494019 1347.974121,1038.422241 
	C1344.774902,1051.833008 1342.137695,1065.378174 1339.282349,1078.870117 
	C1339.043701,1079.998535 1338.857666,1081.222534 1339.033691,1082.341431 
	C1341.386230,1097.294312 1335.905884,1111.208984 1333.292725,1125.484375 
	C1330.809570,1139.049438 1327.899170,1152.536133 1325.245361,1166.070801 
	C1324.986694,1167.389893 1325.210815,1168.803833 1326.226196,1170.392700 
	C1328.119507,1167.548340 1330.012817,1164.704102 1331.906128,1161.859863 
	C1332.602783,1162.039062 1333.299438,1162.218262 1333.996094,1162.397461 
	C1333.996094,1441.619263 1333.996094,1720.840942 1333.998047,2000.531372 
	C1293.645752,2001.000000 1253.291504,2001.000000 1212.468628,2001.000000 
z"/>
<path fill="#010100" opacity="1.000000" stroke="none" 
	d="
M344.010315,1061.917480 
	C368.212952,1072.878784 392.394409,1083.887329 416.623657,1094.789673 
	C446.618835,1108.286499 476.653168,1121.696289 506.671570,1135.141357 
	C514.358459,1138.584229 522.010010,1142.110840 529.760986,1145.402954 
	C532.249634,1146.459961 533.225952,1147.764526 533.172058,1150.581665 
	C532.984375,1160.404785 533.119995,1170.234009 533.122314,1180.984375 
	C533.111938,1196.927246 533.111938,1211.946899 533.111938,1227.548950 
	C531.266968,1226.794922 530.352600,1226.458862 529.469360,1226.055054 
	C428.492554,1179.888550 327.523529,1133.704956 226.514542,1087.609009 
	C223.781586,1086.361938 223.029694,1084.812622 223.041550,1081.957886 
	C223.106644,1066.302612 222.965866,1050.646484 222.895782,1034.990723 
	C222.957306,1025.003052 223.225098,1015.010254 222.979141,1005.030090 
	C222.880356,1001.021484 224.046295,998.921326 227.802307,997.213318 
	C265.143799,980.231995 302.417267,963.100342 339.660339,945.903748 
	C358.563232,937.175537 377.358215,928.213867 396.216858,919.389526 
	C401.250916,917.033875 406.339630,914.795044 411.704254,912.302063 
	C432.985107,902.662476 453.992126,893.283325 474.936523,883.766174 
	C492.770416,875.662476 510.530212,867.395630 528.329773,859.216248 
	C529.646423,858.611145 531.019775,858.129456 533.132324,857.283997 
	C533.132324,871.948425 533.132324,886.005005 533.122253,900.984863 
	C533.104004,911.177856 532.871521,920.454834 533.174988,929.714233 
	C533.347046,934.962769 533.189087,939.537598 526.635376,941.052612 
	C500.755859,952.226746 475.228851,963.433044 449.740448,974.726379 
	C432.451447,982.386719 415.216583,990.169250 397.589844,997.927856 
	C386.881195,1002.511719 376.593842,1007.191956 366.186798,1011.588867 
	C350.125427,1018.374512 334.278503,1025.858276 317.774445,1031.341797 
	C305.801666,1035.319702 292.912567,1036.539551 280.282715,1039.018433 
	C280.282715,1040.508789 280.282715,1042.398804 280.282715,1043.487793 
	C293.546448,1046.422241 306.468658,1048.753662 319.066864,1052.251953 
	C327.616699,1054.626221 335.711823,1058.638062 344.010315,1061.917480 
z"/>
<path fill="#EFC351" opacity="1.000000" stroke="none" 
	d="
M222.558228,1035.102173 
	C222.965866,1050.646484 223.106644,1066.302612 223.041550,1081.957886 
	C223.029694,1084.812622 223.781586,1086.361938 226.514542,1087.609009 
	C327.523529,1133.704956 428.492554,1179.888550 529.469360,1226.055054 
	C530.352600,1226.458862 531.266968,1226.794922 533.111938,1227.548950 
	C533.111938,1211.946899 533.111938,1196.927246 533.202454,1181.445801 
	C534.638428,1182.178101 536.833374,1183.156982 537.199341,1184.599731 
	C541.316528,1200.832397 541.909607,1217.198120 536.636963,1233.237915 
	C532.806702,1244.889771 521.199890,1251.291992 509.208527,1248.088623 
	C499.001404,1245.361938 488.992554,1241.621460 479.241943,1237.509033 
	C450.919067,1225.563965 422.818146,1213.093384 394.531433,1201.061035 
	C381.388184,1195.470215 368.016327,1190.416870 354.380127,1185.057373 
	C342.280884,1179.130859 330.524750,1173.315796 318.824097,1167.391235 
	C301.301422,1158.518799 283.698273,1149.793823 266.362946,1140.567139 
	C256.108124,1135.109009 246.031540,1129.213013 236.370773,1122.770142 
	C226.477158,1116.172241 220.185837,1106.188477 219.446915,1094.562622 
	C218.344177,1077.212158 219.054047,1059.737549 219.309921,1042.320312 
	C219.344925,1039.937622 221.205383,1037.581909 222.558228,1035.102173 
z"/>
<path fill="#000000" opacity="1.000000" stroke="none" 
	d="
M727.190125,907.014343 
	C727.143188,930.029236 727.096252,953.044189 727.040161,976.905396 
	C727.689880,978.483948 728.348877,979.216248 729.007874,979.948486 
	C731.168213,980.019409 733.328613,980.151917 735.488953,980.152344 
	C800.635620,980.165466 865.782349,980.165527 930.929016,980.167480 
	C932.881958,980.167542 934.834900,980.167542 937.358093,980.167542 
	C937.358093,991.820007 937.358093,1002.941956 937.348633,1014.969482 
	C937.339233,1030.439575 937.339233,1045.004028 937.339233,1060.041748 
	C867.193909,1060.041748 797.968262,1060.041748 728.095520,1060.041748 
	C728.095520,1130.560669 728.095520,1200.594360 728.095520,1270.612427 
	C725.632019,1270.788208 723.816040,1270.917847 721.539429,1270.955078 
	C695.384949,1270.921021 669.691284,1270.979248 643.593994,1270.940186 
	C642.509521,1268.962769 641.233643,1267.083130 641.232422,1265.202759 
	C641.140198,1119.292358 641.149109,973.382019 641.138794,827.471619 
	C641.138611,825.313293 640.995911,823.154968 640.919739,820.996643 
	C640.919739,805.040039 640.919739,789.083496 640.919739,772.420776 
	C696.331543,772.420776 751.215271,772.420776 806.553223,772.292725 
	C808.988098,772.278564 810.968750,772.490967 812.949524,772.491638 
	C858.169617,772.507263 903.389771,772.499817 948.609863,772.496643 
	C950.583130,772.496521 952.556396,772.496582 955.245850,772.496582 
	C955.245850,786.271301 955.245850,799.664307 955.234131,813.975952 
	C955.222412,827.170471 955.222412,839.446350 955.222412,852.199890 
	C878.938843,852.199890 803.219971,852.199890 727.190125,852.199890 
	C727.190125,870.792297 727.190125,888.903320 727.190125,907.014343 
z"/>
<path fill="#F3B650" opacity="1.000000" stroke="none" 
	d="
M722.000122,1271.047485 
	C723.816040,1270.917847 725.632019,1270.788208 728.095520,1270.612427 
	C728.095520,1200.594360 728.095520,1130.560669 728.095520,1060.041748 
	C797.968262,1060.041748 867.193909,1060.041748 937.339233,1060.041748 
	C937.339233,1045.004028 937.339233,1030.439575 937.471436,1015.420776 
	C939.146301,1016.729370 941.458740,1018.246826 942.111023,1020.293396 
	C947.785156,1038.095825 947.973816,1056.081909 941.457336,1073.607910 
	C936.701111,1086.399536 925.782227,1092.086914 912.889709,1092.818115 
	C895.307373,1093.815186 877.658752,1093.973022 860.040039,1093.925415 
	C828.763306,1093.841064 797.487183,1093.070923 766.212097,1093.145508 
	C755.619263,1093.170776 744.429199,1094.812622 739.425720,1105.913940 
	C736.522095,1112.356201 735.244873,1120.035034 735.185669,1127.173584 
	C734.817200,1171.635254 735.067200,1216.101807 734.913208,1260.566040 
	C734.894409,1265.993530 734.150635,1271.522095 732.943359,1276.821777 
	C729.651733,1291.271729 719.508728,1300.189819 704.813232,1301.896973 
	C699.547791,1302.508789 694.227234,1302.646118 688.470825,1303.000000 
	C676.362610,1302.580200 664.778320,1301.974487 654.191467,1296.165283 
	C645.453979,1291.370728 641.123413,1283.543823 639.200623,1274.266968 
	C638.265625,1269.756470 638.048218,1265.031250 638.046387,1260.402954 
	C637.989624,1118.002319 637.981934,975.601624 638.093445,833.200989 
	C638.096558,829.219604 639.485901,825.239258 640.574280,821.127563 
	C640.995911,823.154968 641.138611,825.313293 641.138794,827.471619 
	C641.149109,973.382019 641.140198,1119.292358 641.232422,1265.202759 
	C641.233643,1267.083130 642.509521,1268.962769 643.598572,1271.335449 
	C645.907166,1284.284668 655.559814,1293.130371 668.043945,1293.997925 
	C677.476257,1294.653198 686.751587,1294.925049 696.260193,1293.271362 
	C711.464478,1290.627075 719.927490,1284.114380 722.000122,1271.047485 
z"/>
<path fill="#F0C352" opacity="1.000000" stroke="none" 
	d="
M344.024475,1061.557861 
	C335.711823,1058.638062 327.616699,1054.626221 319.066864,1052.251953 
	C306.468658,1048.753662 293.546448,1046.422241 280.282715,1043.487793 
	C280.282715,1042.398804 280.282715,1040.508789 280.282715,1039.018433 
	C292.912567,1036.539551 305.801666,1035.319702 317.774445,1031.341797 
	C334.278503,1025.858276 350.125427,1018.374512 366.186798,1011.588867 
	C376.593842,1007.191956 386.881195,1002.511719 397.864014,998.175476 
	C399.943176,998.343872 401.454132,998.567078 402.805450,998.201050 
	C409.703033,996.332764 416.594696,994.426819 423.423553,992.323364 
	C443.589386,986.111938 463.818268,980.082275 483.831909,973.409729 
	C493.717926,970.113708 503.433075,966.060059 512.765564,961.423340 
	C520.844666,957.409363 525.793274,950.370178 527.004333,941.121765 
	C533.189087,939.537598 533.347046,934.962769 533.174988,929.714233 
	C532.871521,920.454834 533.104004,911.177856 533.202576,901.446350 
	C534.845459,902.439514 537.325867,903.644043 537.797485,905.390991 
	C540.535217,915.530640 542.074219,925.892761 540.331177,936.392517 
	C539.196289,943.228699 538.200684,950.208130 535.955139,956.713562 
	C531.915100,968.417786 522.559509,975.601318 511.967529,980.895386 
	C499.183502,987.284973 486.092987,993.071655 473.051788,998.933838 
	C456.072662,1006.566162 438.945923,1013.871826 422.001923,1021.580200 
	C399.300354,1031.907837 376.648315,1042.350830 354.139709,1053.089600 
	C350.346588,1054.899292 347.384674,1058.451294 344.024475,1061.557861 
z"/>
<path fill="#010000" opacity="1.000000" stroke="none" 
	d="
M1392.094727,800.608032 
	C1386.447510,821.681396 1380.708130,842.344910 1375.133301,863.052673 
	C1338.993042,997.294922 1302.872925,1131.542603 1266.851440,1265.816772 
	C1265.811523,1269.693848 1264.292603,1270.977783 1260.137817,1270.954102 
	C1224.639526,1270.752319 1189.139648,1270.836060 1153.640259,1270.834351 
	C1151.993652,1270.834351 1150.347046,1270.834473 1148.379150,1270.834473 
	C1144.576660,1256.468384 1140.813599,1242.367676 1137.114258,1228.250122 
	C1128.346313,1194.790527 1119.628784,1161.317749 1110.852295,1127.860352 
	C1103.964966,1101.604980 1097.059326,1075.354248 1090.087891,1049.120972 
	C1084.170166,1026.853271 1078.029419,1004.644287 1072.201538,982.353333 
	C1065.614136,957.157898 1059.398804,931.865051 1052.778320,906.678528 
	C1045.366943,878.483093 1037.659424,850.365540 1030.136108,822.199402 
	C1028.552856,816.271851 1027.209961,810.280029 1025.431152,804.146973 
	C1023.378479,796.555664 1021.663696,789.132141 1019.917053,781.716187 
	C1019.249817,778.883057 1018.509277,776.067200 1017.696045,772.820129 
	C1047.566406,772.820129 1076.937256,772.820129 1106.898926,772.820129 
	C1107.954956,777.145142 1109.084717,781.772461 1110.421387,786.711304 
	C1112.682983,796.114014 1114.737915,805.205139 1116.983276,815.040405 
	C1122.222534,837.446777 1127.179321,859.130798 1132.343506,880.765381 
	C1138.473633,906.446960 1144.867798,932.065552 1150.988770,957.749268 
	C1156.860107,982.385071 1162.449707,1007.088013 1168.309692,1031.726562 
	C1173.453003,1053.351685 1178.835693,1074.919922 1184.046997,1096.529175 
	C1189.044556,1117.252686 1194.258545,1137.931274 1198.786133,1158.758179 
	C1201.188965,1169.811890 1202.327148,1181.140015 1204.054321,1192.341309 
	C1205.000488,1198.477295 1205.905396,1204.622314 1207.037109,1210.724487 
	C1207.203979,1211.624390 1208.525269,1212.310059 1209.312500,1213.094849 
	C1209.869507,1212.225342 1210.794189,1211.407104 1210.923584,1210.478149 
	C1211.760986,1204.463013 1212.142334,1198.373657 1213.200317,1192.402100 
	C1216.115601,1175.946899 1218.761108,1159.416748 1222.479614,1143.136963 
	C1228.943848,1114.835449 1236.169189,1086.708496 1243.007812,1058.491821 
	C1247.734375,1038.990112 1252.362915,1019.464478 1257.006226,999.942566 
	C1261.000244,983.150452 1265.002319,966.359863 1268.909424,949.547424 
	C1272.382202,934.603394 1275.621460,919.604492 1279.160400,904.676392 
	C1283.408081,886.758118 1287.824829,868.879395 1292.244995,851.002441 
	C1294.794922,840.689209 1297.614624,830.441711 1300.085815,820.110291 
	C1301.595703,813.797852 1302.674438,807.382324 1303.946777,801.013123 
	C1306.092651,792.980896 1308.566040,785.015808 1310.233154,776.885376 
	C1310.961304,773.333191 1312.244019,772.413940 1315.612671,772.426270 
	C1343.038452,772.526855 1370.464844,772.478821 1398.346680,772.463867 
	C1396.561035,781.707275 1394.319702,790.962891 1392.094727,800.608032 
z"/>
<path fill="#010000" opacity="1.000000" stroke="none" 
	d="
M1690.625488,959.015137 
	C1709.630493,967.681458 1728.265747,976.335876 1746.916260,984.957581 
	C1756.251953,989.273193 1765.559448,993.658752 1774.999878,997.734253 
	C1777.873535,998.974854 1779.020996,1000.457397 1778.899048,1003.623535 
	C1778.662842,1009.765686 1778.855835,1015.924316 1778.864014,1022.997253 
	C1778.847656,1041.153076 1778.529053,1058.395874 1778.981689,1075.618286 
	C1779.161377,1082.456909 1778.520142,1087.858032 1770.601807,1089.934814 
	C1688.899780,1127.179199 1607.578369,1164.423462 1526.222412,1201.591797 
	C1507.178223,1210.292114 1488.015991,1218.734375 1468.908203,1227.295532 
	C1468.875122,1201.814941 1468.921753,1176.333618 1468.711670,1150.854492 
	C1468.684204,1147.513794 1470.420532,1146.741821 1472.812988,1145.685059 
	C1510.201416,1129.168701 1547.567261,1112.601318 1584.927612,1096.021606 
	C1607.404053,1086.046997 1629.862183,1076.030884 1652.986572,1065.774292 
	C1675.086426,1054.721802 1697.531982,1047.427002 1722.000488,1046.723633 
	C1721.898926,1044.400024 1721.829590,1042.815674 1721.823242,1042.670044 
	C1706.173096,1038.486084 1690.517212,1036.267578 1676.512451,1030.223267 
	C1608.009033,1000.657837 1539.937622,970.091064 1471.783447,939.721313 
	C1470.368896,939.091003 1469.052002,936.606384 1468.963013,934.919678 
	C1468.577393,927.615662 1468.665649,920.286621 1468.581421,912.966675 
	C1468.581421,894.836853 1468.581421,876.707031 1468.581421,857.686157 
	C1542.981323,891.685425 1616.621704,925.337585 1690.625488,959.015137 
z"/>
<path fill="#F0954A" opacity="1.000000" stroke="none" 
	d="
M1468.922607,1227.667480 
	C1488.015991,1218.734375 1507.178223,1210.292114 1526.222412,1201.591797 
	C1607.578369,1164.423462 1688.899780,1127.179199 1770.608643,1090.363159 
	C1771.107666,1097.096191 1768.400513,1102.231812 1764.518921,1107.041260 
	C1756.469238,1117.015137 1744.834839,1121.620483 1734.055298,1127.351929 
	C1715.292236,1137.328247 1696.164307,1146.616455 1677.311157,1156.427124 
	C1671.734619,1159.328735 1666.566650,1163.015259 1661.211426,1166.342163 
	C1661.413940,1166.775024 1661.616455,1167.207764 1661.818970,1167.640625 
	C1669.876099,1166.427124 1677.933105,1165.213623 1685.990234,1164.000000 
	C1683.888184,1165.716675 1681.962280,1167.733154 1679.649902,1169.091919 
	C1673.580322,1172.658203 1667.342163,1175.937744 1661.083130,1179.663330 
	C1653.078735,1182.958618 1645.108521,1185.786865 1637.256470,1188.911987 
	C1617.034058,1196.960693 1596.849731,1205.105713 1576.676514,1213.277344 
	C1554.655273,1222.197510 1532.739502,1231.383667 1510.622437,1240.057861 
	C1501.705444,1243.555176 1492.533325,1247.044556 1482.568726,1243.715698 
	C1474.898926,1241.153687 1470.471680,1235.881470 1468.922607,1227.667480 
z"/>
<path fill="#EF964A" opacity="1.000000" stroke="none" 
	d="
M1468.225098,913.009583 
	C1468.665649,920.286621 1468.577393,927.615662 1468.963013,934.919678 
	C1469.052002,936.606384 1470.368896,939.091003 1471.783447,939.721313 
	C1539.937622,970.091064 1608.009033,1000.657837 1676.512451,1030.223267 
	C1690.517212,1036.267578 1706.173096,1038.486084 1721.823242,1042.670044 
	C1721.829590,1042.815674 1721.898926,1044.400024 1722.000488,1046.723633 
	C1697.531982,1047.427002 1675.086426,1054.721802 1653.306885,1065.589966 
	C1652.145996,1064.004883 1651.764160,1061.618042 1650.426147,1060.805298 
	C1642.923218,1056.248169 1635.341187,1051.770752 1627.508545,1047.815796 
	C1595.532104,1031.669922 1563.454956,1015.723633 1531.415161,999.703125 
	C1517.730347,992.860535 1503.891479,986.306152 1490.401489,979.098694 
	C1473.728516,970.190552 1465.281250,955.957825 1465.016479,936.993347 
	C1464.942017,931.662781 1464.699829,926.304749 1465.136963,921.009033 
	C1465.360596,918.300110 1466.915649,915.701111 1468.225098,913.009583 
z"/>
<path fill="#F1B34F" opacity="1.000000" stroke="none" 
	d="
M727.513794,906.904175 
	C727.190125,888.903320 727.190125,870.792297 727.190125,852.199890 
	C803.219971,852.199890 878.938843,852.199890 955.222412,852.199890 
	C955.222412,839.446350 955.222412,827.170471 955.326294,814.434570 
	C956.505432,814.843445 958.322754,815.555298 958.544800,816.604736 
	C961.992249,832.896484 963.499939,849.193176 956.452087,865.002380 
	C952.528809,873.802795 945.403442,879.029541 936.147278,881.088379 
	C931.320862,882.161926 926.303467,882.935791 921.377258,882.909729 
	C893.429688,882.761963 865.482910,882.377014 837.537231,881.980469 
	C820.414551,881.737488 803.254639,881.922791 786.186707,880.786377 
	C774.830078,880.030212 763.686279,879.984070 752.488831,881.859192 
	C741.603699,883.682190 734.431946,889.655457 731.031738,900.229614 
	C730.294250,902.523010 728.919006,904.611267 727.513794,906.904175 
z"/>
<path fill="#F1B34F" opacity="1.000000" stroke="none" 
	d="
M728.992188,979.623596 
	C728.348877,979.216248 727.689880,978.483948 727.110596,977.368408 
	C727.785583,977.756348 728.381042,978.527527 728.992188,979.623596 
z"/>
<path fill="#F6954C" opacity="1.000000" stroke="none" 
	d="
M1686.374756,1163.982910 
	C1677.933105,1165.213623 1669.876099,1166.427124 1661.818970,1167.640625 
	C1661.616455,1167.207764 1661.413940,1166.775024 1661.211426,1166.342163 
	C1666.566650,1163.015259 1671.734619,1159.328735 1677.311157,1156.427124 
	C1696.164307,1146.616455 1715.292236,1137.328247 1734.055298,1127.351929 
	C1744.834839,1121.620483 1756.469238,1117.015137 1764.518921,1107.041260 
	C1768.400513,1102.231812 1771.107666,1097.096191 1770.976562,1090.335205 
	C1778.520142,1087.858032 1779.161377,1082.456909 1778.981689,1075.618286 
	C1778.529053,1058.395874 1778.847656,1041.153076 1778.953857,1023.458313 
	C1780.563354,1024.392944 1782.944580,1025.532349 1783.442383,1027.225464 
	C1785.901978,1035.590820 1788.880127,1044.000732 1789.742065,1052.588867 
	C1790.815918,1063.288086 1790.392212,1074.194824 1789.902710,1084.979614 
	C1789.245361,1099.458740 1785.715576,1113.241821 1773.640747,1122.577393 
	C1766.495728,1128.101318 1758.464233,1132.749146 1750.268066,1136.588623 
	C1731.633911,1145.317993 1712.661011,1153.325684 1693.799561,1161.566650 
	C1691.535522,1162.555786 1689.109863,1163.175171 1686.374756,1163.982910 
z"/>
<path fill="#F2A64D" opacity="1.000000" stroke="none" 
	d="
M1303.606934,801.075806 
	C1302.674438,807.382324 1301.595703,813.797852 1300.085815,820.110291 
	C1297.614624,830.441711 1294.794922,840.689209 1292.244995,851.002441 
	C1287.824829,868.879395 1283.408081,886.758118 1279.160400,904.676392 
	C1275.621460,919.604492 1272.382202,934.603394 1268.909424,949.547424 
	C1265.002319,966.359863 1261.000244,983.150452 1257.006226,999.942566 
	C1252.362915,1019.464478 1247.734375,1038.990112 1243.007812,1058.491821 
	C1236.169189,1086.708496 1228.943848,1114.835449 1222.479614,1143.136963 
	C1218.761108,1159.416748 1216.115601,1175.946899 1213.200317,1192.402100 
	C1212.142334,1198.373657 1211.760986,1204.463013 1210.923584,1210.478149 
	C1210.794189,1211.407104 1209.869507,1212.225342 1209.312500,1213.094849 
	C1208.525269,1212.310059 1207.203979,1211.624390 1207.037109,1210.724487 
	C1205.905396,1204.622314 1205.000488,1198.477295 1204.054321,1192.341309 
	C1202.327148,1181.140015 1201.188965,1169.811890 1198.786133,1158.758179 
	C1194.258545,1137.931274 1189.044556,1117.252686 1184.046997,1096.529175 
	C1178.835693,1074.919922 1173.453003,1053.351685 1168.309692,1031.726562 
	C1162.449707,1007.088013 1156.860107,982.385071 1150.988770,957.749268 
	C1144.867798,932.065552 1138.473633,906.446960 1132.343506,880.765381 
	C1127.179321,859.130798 1122.222534,837.446777 1117.188965,815.385986 
	C1118.302246,816.295715 1119.977539,817.438354 1120.407837,818.938171 
	C1124.257202,832.356750 1128.129028,845.777527 1131.528442,859.314697 
	C1137.683960,883.826599 1143.528809,908.416626 1149.485596,932.978333 
	C1156.343628,961.256042 1163.041504,989.573486 1170.065308,1017.809937 
	C1178.975220,1053.628906 1188.053589,1089.406738 1197.306396,1125.138306 
	C1198.537476,1129.892090 1200.843994,1134.487061 1203.320679,1138.769165 
	C1206.674194,1144.567383 1211.344727,1144.593384 1214.504517,1138.442261 
	C1217.670410,1132.279297 1220.274048,1125.634888 1221.902710,1118.905884 
	C1232.463501,1075.272949 1242.733276,1031.569092 1253.015991,987.869141 
	C1265.354248,935.434021 1277.467773,882.945190 1290.046387,830.567993 
	C1292.083862,822.083740 1295.903564,814.007080 1299.188477,805.858582 
	C1299.924072,804.033691 1301.875488,802.698914 1303.606934,801.075806 
z"/>
<path fill="#EBBC4F" opacity="1.000000" stroke="none" 
	d="
M526.635376,941.052612 
	C525.793274,950.370178 520.844666,957.409363 512.765564,961.423340 
	C503.433075,966.060059 493.717926,970.113708 483.831909,973.409729 
	C463.818268,980.082275 443.589386,986.111938 423.423553,992.323364 
	C416.594696,994.426819 409.703033,996.332764 402.805450,998.201050 
	C401.454132,998.567078 399.943176,998.343872 398.231689,998.144775 
	C415.216583,990.169250 432.451447,982.386719 449.740448,974.726379 
	C475.228851,963.433044 500.755859,952.226746 526.635376,941.052612 
z"/>
<path fill="#F0B850" opacity="1.000000" stroke="none" 
	d="
M721.539429,1270.955078 
	C719.927490,1284.114380 711.464478,1290.627075 696.260193,1293.271362 
	C686.751587,1294.925049 677.476257,1294.653198 668.043945,1293.997925 
	C655.559814,1293.130371 645.907166,1284.284668 644.002136,1271.432739 
	C669.691284,1270.979248 695.384949,1270.921021 721.539429,1270.955078 
z"/>
</svg>